<mxfile host="app.diagrams.net" modified="2020-10-31T09:35:21.524Z" agent="5.0 (Windows NT 6.1; Win64; x64) AppleWebKit/537.36 (KHTML, like Gecko) Chrome/86.0.4240.111 Safari/537.36" etag="LniP2Y-mlHcP5dygfo4z" version="13.6.6" type="github">
  <diagram id="VPmKT2DLU5cqVU3n3OCX" name="Page-1">
    <mxGraphModel dx="1673" dy="896" grid="1" gridSize="10" guides="1" tooltips="1" connect="1" arrows="1" fold="1" page="1" pageScale="1" pageWidth="850" pageHeight="1100" math="0" shadow="0">
      <root>
        <mxCell id="0" />
        <mxCell id="1" parent="0" />
        <mxCell id="mPDo3dySegDhu_UgBfzU-47" value="" style="group" vertex="1" connectable="0" parent="1">
          <mxGeometry x="45" y="60" width="380" height="550" as="geometry" />
        </mxCell>
        <mxCell id="mPDo3dySegDhu_UgBfzU-46" value="" style="group" vertex="1" connectable="0" parent="mPDo3dySegDhu_UgBfzU-47">
          <mxGeometry width="340" height="530" as="geometry" />
        </mxCell>
        <mxCell id="mPDo3dySegDhu_UgBfzU-61" value="" style="group" vertex="1" connectable="0" parent="mPDo3dySegDhu_UgBfzU-46">
          <mxGeometry width="340" height="396" as="geometry" />
        </mxCell>
        <mxCell id="mPDo3dySegDhu_UgBfzU-59" value="" style="group" vertex="1" connectable="0" parent="mPDo3dySegDhu_UgBfzU-61">
          <mxGeometry width="340" height="396" as="geometry" />
        </mxCell>
        <mxCell id="mPDo3dySegDhu_UgBfzU-20" value="" style="shape=table;html=1;whiteSpace=wrap;startSize=0;container=1;collapsible=0;childLayout=tableLayout;fillColor=#E0E0E0;" vertex="1" parent="mPDo3dySegDhu_UgBfzU-59">
          <mxGeometry y="10" width="340" height="360" as="geometry" />
        </mxCell>
        <mxCell id="mPDo3dySegDhu_UgBfzU-21" value="" style="shape=partialRectangle;html=1;whiteSpace=wrap;collapsible=0;dropTarget=0;pointerEvents=0;fillColor=none;top=0;left=0;bottom=0;right=0;points=[[0,0.5],[1,0.5]];portConstraint=eastwest;" vertex="1" parent="mPDo3dySegDhu_UgBfzU-20">
          <mxGeometry width="340" height="53" as="geometry" />
        </mxCell>
        <mxCell id="mPDo3dySegDhu_UgBfzU-22" value="&lt;b&gt;&lt;font style=&quot;font-size: 24px&quot;&gt;Local Machine&lt;/font&gt;&lt;/b&gt;" style="shape=partialRectangle;html=1;whiteSpace=wrap;connectable=0;overflow=hidden;fillColor=none;top=0;left=0;bottom=0;right=0;" vertex="1" parent="mPDo3dySegDhu_UgBfzU-21">
          <mxGeometry width="340" height="53" as="geometry" />
        </mxCell>
        <mxCell id="mPDo3dySegDhu_UgBfzU-23" value="" style="shape=partialRectangle;html=1;whiteSpace=wrap;collapsible=0;dropTarget=0;pointerEvents=0;fillColor=none;top=0;left=0;bottom=0;right=0;points=[[0,0.5],[1,0.5]];portConstraint=eastwest;" vertex="1" parent="mPDo3dySegDhu_UgBfzU-20">
          <mxGeometry y="53" width="340" height="307" as="geometry" />
        </mxCell>
        <object label="&lt;table&gt;&lt;tbody&gt;&lt;tr&gt;&lt;td&gt;&lt;br&gt;&lt;/td&gt;&lt;/tr&gt;&lt;/tbody&gt;&lt;/table&gt;" placeholders="1" id="mPDo3dySegDhu_UgBfzU-24">
          <mxCell style="shape=partialRectangle;html=1;whiteSpace=wrap;connectable=0;overflow=hidden;fillColor=none;top=0;left=0;bottom=0;right=0;" vertex="1" parent="mPDo3dySegDhu_UgBfzU-23">
            <mxGeometry width="340" height="307" as="geometry" />
          </mxCell>
        </object>
        <mxCell id="mPDo3dySegDhu_UgBfzU-41" value="&lt;font style=&quot;font-size: 17px&quot;&gt;Make change to code for tickets service&lt;/font&gt;" style="rounded=0;whiteSpace=wrap;html=1;fillColor=#dae8fc;strokeColor=#6c8ebf;" vertex="1" parent="mPDo3dySegDhu_UgBfzU-59">
          <mxGeometry x="20" y="90" width="300" height="60" as="geometry" />
        </mxCell>
        <mxCell id="mPDo3dySegDhu_UgBfzU-42" value="&lt;font style=&quot;font-size: 17px&quot;&gt;Make change to code for tickets service&lt;/font&gt;" style="rounded=0;whiteSpace=wrap;html=1;fillColor=#dae8fc;strokeColor=#6c8ebf;" vertex="1" parent="mPDo3dySegDhu_UgBfzU-59">
          <mxGeometry x="20" y="190" width="300" height="60" as="geometry" />
        </mxCell>
        <mxCell id="mPDo3dySegDhu_UgBfzU-44" style="edgeStyle=orthogonalEdgeStyle;rounded=0;orthogonalLoop=1;jettySize=auto;html=1;exitX=0.5;exitY=1;exitDx=0;exitDy=0;" edge="1" parent="mPDo3dySegDhu_UgBfzU-59" source="mPDo3dySegDhu_UgBfzU-41" target="mPDo3dySegDhu_UgBfzU-42">
          <mxGeometry relative="1" as="geometry" />
        </mxCell>
        <mxCell id="mPDo3dySegDhu_UgBfzU-43" value="&lt;font style=&quot;font-size: 17px&quot;&gt;Make change to code for tickets service&lt;/font&gt;" style="rounded=0;whiteSpace=wrap;html=1;fillColor=#dae8fc;strokeColor=#6c8ebf;" vertex="1" parent="mPDo3dySegDhu_UgBfzU-59">
          <mxGeometry x="20" y="280" width="300" height="60" as="geometry" />
        </mxCell>
        <mxCell id="mPDo3dySegDhu_UgBfzU-45" style="edgeStyle=orthogonalEdgeStyle;rounded=0;orthogonalLoop=1;jettySize=auto;html=1;exitX=0.5;exitY=1;exitDx=0;exitDy=0;entryX=0.5;entryY=0;entryDx=0;entryDy=0;" edge="1" parent="mPDo3dySegDhu_UgBfzU-59" source="mPDo3dySegDhu_UgBfzU-42" target="mPDo3dySegDhu_UgBfzU-43">
          <mxGeometry relative="1" as="geometry" />
        </mxCell>
        <mxCell id="mPDo3dySegDhu_UgBfzU-62" value="" style="group" vertex="1" connectable="0" parent="1">
          <mxGeometry x="460" y="60" width="360" height="670" as="geometry" />
        </mxCell>
        <mxCell id="mPDo3dySegDhu_UgBfzU-58" value="" style="group" vertex="1" connectable="0" parent="mPDo3dySegDhu_UgBfzU-62">
          <mxGeometry width="360" height="670" as="geometry" />
        </mxCell>
        <mxCell id="mPDo3dySegDhu_UgBfzU-26" value="" style="shape=table;html=1;whiteSpace=wrap;startSize=0;container=1;collapsible=0;childLayout=tableLayout;fillColor=#E0E0E0;" vertex="1" parent="mPDo3dySegDhu_UgBfzU-58">
          <mxGeometry width="360" height="670" as="geometry" />
        </mxCell>
        <mxCell id="mPDo3dySegDhu_UgBfzU-27" value="" style="shape=partialRectangle;html=1;whiteSpace=wrap;collapsible=0;dropTarget=0;pointerEvents=0;fillColor=none;top=0;left=0;bottom=0;right=0;points=[[0,0.5],[1,0.5]];portConstraint=eastwest;" vertex="1" parent="mPDo3dySegDhu_UgBfzU-26">
          <mxGeometry width="360" height="61" as="geometry" />
        </mxCell>
        <mxCell id="mPDo3dySegDhu_UgBfzU-28" value="&lt;b&gt;&lt;font style=&quot;font-size: 24px&quot;&gt;Github&lt;/font&gt;&lt;/b&gt;" style="shape=partialRectangle;html=1;whiteSpace=wrap;connectable=0;overflow=hidden;fillColor=none;top=0;left=0;bottom=0;right=0;" vertex="1" parent="mPDo3dySegDhu_UgBfzU-27">
          <mxGeometry width="360" height="61" as="geometry" />
        </mxCell>
        <mxCell id="mPDo3dySegDhu_UgBfzU-29" value="" style="shape=partialRectangle;html=1;whiteSpace=wrap;collapsible=0;dropTarget=0;pointerEvents=0;fillColor=none;top=0;left=0;bottom=0;right=0;points=[[0,0.5],[1,0.5]];portConstraint=eastwest;" vertex="1" parent="mPDo3dySegDhu_UgBfzU-26">
          <mxGeometry y="61" width="360" height="609" as="geometry" />
        </mxCell>
        <mxCell id="mPDo3dySegDhu_UgBfzU-30" value="" style="shape=partialRectangle;html=1;whiteSpace=wrap;connectable=0;overflow=hidden;fillColor=none;top=0;left=0;bottom=0;right=0;" vertex="1" parent="mPDo3dySegDhu_UgBfzU-29">
          <mxGeometry width="360" height="609" as="geometry" />
        </mxCell>
        <mxCell id="mPDo3dySegDhu_UgBfzU-48" value="&lt;font style=&quot;font-size: 17px&quot;&gt;Github receives updated branch&lt;/font&gt;" style="rounded=0;whiteSpace=wrap;html=1;fillColor=#dae8fc;strokeColor=#6c8ebf;" vertex="1" parent="mPDo3dySegDhu_UgBfzU-58">
          <mxGeometry x="40" y="80" width="280" height="80" as="geometry" />
        </mxCell>
        <mxCell id="mPDo3dySegDhu_UgBfzU-49" value="&lt;font style=&quot;font-size: 17px&quot;&gt;You manually create a pull request to merge branch into master&lt;/font&gt;" style="rounded=0;whiteSpace=wrap;html=1;fillColor=#dae8fc;strokeColor=#6c8ebf;" vertex="1" parent="mPDo3dySegDhu_UgBfzU-58">
          <mxGeometry x="40" y="200" width="280" height="80" as="geometry" />
        </mxCell>
        <mxCell id="mPDo3dySegDhu_UgBfzU-53" style="edgeStyle=orthogonalEdgeStyle;rounded=0;orthogonalLoop=1;jettySize=auto;html=1;exitX=0.5;exitY=1;exitDx=0;exitDy=0;entryX=0.5;entryY=0;entryDx=0;entryDy=0;" edge="1" parent="mPDo3dySegDhu_UgBfzU-58" source="mPDo3dySegDhu_UgBfzU-48" target="mPDo3dySegDhu_UgBfzU-49">
          <mxGeometry relative="1" as="geometry" />
        </mxCell>
        <mxCell id="mPDo3dySegDhu_UgBfzU-50" value="&lt;font style=&quot;font-size: 17px&quot;&gt;Github automatically runs tests for project&lt;/font&gt;" style="rounded=0;whiteSpace=wrap;html=1;fillColor=#dae8fc;strokeColor=#6c8ebf;" vertex="1" parent="mPDo3dySegDhu_UgBfzU-58">
          <mxGeometry x="40" y="320" width="280" height="80" as="geometry" />
        </mxCell>
        <mxCell id="mPDo3dySegDhu_UgBfzU-54" style="edgeStyle=orthogonalEdgeStyle;rounded=0;orthogonalLoop=1;jettySize=auto;html=1;exitX=0.5;exitY=1;exitDx=0;exitDy=0;" edge="1" parent="mPDo3dySegDhu_UgBfzU-58" source="mPDo3dySegDhu_UgBfzU-49" target="mPDo3dySegDhu_UgBfzU-50">
          <mxGeometry relative="1" as="geometry" />
        </mxCell>
        <mxCell id="mPDo3dySegDhu_UgBfzU-51" value="&lt;font style=&quot;font-size: 17px&quot;&gt;After tests pass, you merge the PR into master branch&lt;/font&gt;" style="rounded=0;whiteSpace=wrap;html=1;fillColor=#dae8fc;strokeColor=#6c8ebf;" vertex="1" parent="mPDo3dySegDhu_UgBfzU-58">
          <mxGeometry x="40" y="440" width="280" height="80" as="geometry" />
        </mxCell>
        <mxCell id="mPDo3dySegDhu_UgBfzU-55" style="edgeStyle=orthogonalEdgeStyle;rounded=0;orthogonalLoop=1;jettySize=auto;html=1;exitX=0.5;exitY=1;exitDx=0;exitDy=0;entryX=0.5;entryY=0;entryDx=0;entryDy=0;" edge="1" parent="mPDo3dySegDhu_UgBfzU-58" source="mPDo3dySegDhu_UgBfzU-50" target="mPDo3dySegDhu_UgBfzU-51">
          <mxGeometry relative="1" as="geometry" />
        </mxCell>
        <mxCell id="mPDo3dySegDhu_UgBfzU-52" value="&lt;font style=&quot;font-size: 17px&quot;&gt;Github receives updated branch&lt;/font&gt;" style="rounded=0;whiteSpace=wrap;html=1;fillColor=#dae8fc;strokeColor=#6c8ebf;" vertex="1" parent="mPDo3dySegDhu_UgBfzU-58">
          <mxGeometry x="40" y="560" width="280" height="80" as="geometry" />
        </mxCell>
        <mxCell id="mPDo3dySegDhu_UgBfzU-56" style="edgeStyle=orthogonalEdgeStyle;rounded=0;orthogonalLoop=1;jettySize=auto;html=1;exitX=0.5;exitY=1;exitDx=0;exitDy=0;" edge="1" parent="mPDo3dySegDhu_UgBfzU-58" source="mPDo3dySegDhu_UgBfzU-51" target="mPDo3dySegDhu_UgBfzU-52">
          <mxGeometry relative="1" as="geometry" />
        </mxCell>
        <mxCell id="mPDo3dySegDhu_UgBfzU-60" style="edgeStyle=orthogonalEdgeStyle;rounded=0;orthogonalLoop=1;jettySize=auto;html=1;exitX=1;exitY=0.5;exitDx=0;exitDy=0;entryX=0;entryY=0.5;entryDx=0;entryDy=0;" edge="1" parent="1" source="mPDo3dySegDhu_UgBfzU-43" target="mPDo3dySegDhu_UgBfzU-48">
          <mxGeometry relative="1" as="geometry" />
        </mxCell>
      </root>
    </mxGraphModel>
  </diagram>
</mxfile>
